<svg aria-hidden="true" style="position: absolute; width: 0; height: 0; overflow: hidden;" version="1.1" xmlns="http://www.w3.org/2000/svg" xmlns:xlink="http://www.w3.org/1999/xlink">
<defs>
<symbol id="icon-tv" viewBox="0 0 48 48">
<path d="M0 44c0 2.21 1.79 4 4 4h40c2.21 0 4-1.79 4-4l-0-28c0-2.21-1.79-4-4-4h-17.53l7.81-7.81c0.961-0.96 0.961-2.51 0-3.47-0.96-0.96-2.51-0.96-3.469 0l-11.291 11.28h-0.050l-8.28-8.28c-0.96-0.96-2.51-0.96-3.47 0s-0.96 2.51 0 3.47l4.8 4.81h-8.52c-2.21 0-4 1.79-4 4v28zM7.2 17h24.6c1.22 0 2.2 0.98 2.2 2.2v21.6c0 1.22-0.98 2.2-2.2 2.2h-24.6c-1.22 0-2.2-0.98-2.2-2.2v-21.6c0-1.22 0.98-2.2 2.2-2.2zM38 19.5c0-1.38 1.12-2.5 2.5-2.5s2.5 1.12 2.5 2.5-1.12 2.5-2.5 2.5-2.5-1.12-2.5-2.5zM38 27.5c0-1.38 1.12-2.5 2.5-2.5s2.5 1.12 2.5 2.5-1.12 2.5-2.5 2.5-2.5-1.12-2.5-2.5z"></path>
</symbol>
<symbol id="icon-cog" viewBox="0 0 48 48">
<path d="M21 24.5c0-1.38 1.12-2.5 2.5-2.5s2.5 1.12 2.5 2.5-1.12 2.5-2.5 2.5-2.5-1.12-2.5-2.5zM23.5 18c-3.59 0-6.5 2.91-6.5 6.5s2.91 6.5 6.5 6.5 6.5-2.91 6.5-6.5-2.91-6.5-6.5-6.5zM6.66 29.28c0.38 1.35 0.92 2.63 1.6 3.819l-3 3.28c-0.859 0.86-0.859 2.25 0 3.11l3.25 3.25c0.86 0.859 2.25 0.859 3.11 0l3.28-3c1.189 0.68 2.47 1.22 3.819 1.6l0.281 4.461c0 1.22 0.98 2.2 2.2 2.2h4.6c1.22 0 2.2-0.98 2.2-2.2l0.279-4.46c1.351-0.38 2.631-0.92 3.82-1.6l3.28 3c0.86 0.859 2.25 0.859 3.11 0l3.25-3.25c0.859-0.86 0.859-2.25 0-3.11l-3-3.28c0.68-1.189 1.22-2.47 1.6-3.819l4.461-0.281c1.22 0 2.2-0.98 2.2-2.2v-4.6c0-1.22-0.98-2.2-2.2-2.2l-4.46-0.28c-0.38-1.35-0.92-2.63-1.6-3.82l3-3.28c0.859-0.86 0.859-2.25 0-3.11l-3.25-3.25c-0.86-0.86-2.25-0.86-3.11 0l-3.28 3c-1.189-0.68-2.47-1.22-3.82-1.6l-0.28-4.46c0-1.22-0.98-2.2-2.2-2.2h-4.6c-1.22 0-2.2 0.98-2.2 2.2l-0.28 4.46c-1.35 0.38-2.63 0.92-3.819 1.6l-3.28-3c-0.86-0.86-2.25-0.86-3.11 0l-3.251 3.25c-0.859 0.86-0.859 2.25 0 3.11l3 3.28c-0.68 1.19-1.22 2.47-1.6 3.82l-4.46 0.28c-1.22 0-2.2 0.98-2.2 2.2v4.6c0 1.22 0.98 2.2 2.2 2.2l4.46 0.28zM23.5 14c5.8 0 10.5 4.7 10.5 10.5s-4.7 10.5-10.5 10.5-10.5-4.7-10.5-10.5 4.7-10.5 10.5-10.5z"></path>
</symbol>
<symbol id="icon-x" viewBox="0 0 32 32">
<path d="M30 24.398l-8.406-8.398 8.406-8.398-5.602-5.602-8.398 8.402-8.402-8.402-5.598 5.602 8.398 8.398-8.398 8.398 5.598 5.602 8.402-8.402 8.398 8.402z"></path>
</symbol>
<symbol id="icon-cog1" viewBox="0 0 32 32">
<path d="M32 17.969v-4l-4.781-1.992c-0.133-0.375-0.273-0.738-0.445-1.094l1.93-4.805-2.829-2.828-4.762 1.961c-0.363-0.176-0.734-0.324-1.117-0.461l-2.027-4.75h-4l-1.977 4.734c-0.398 0.141-0.781 0.289-1.16 0.469l-4.754-1.91-2.828 2.828 1.938 4.711c-0.188 0.387-0.34 0.781-0.485 1.188l-4.703 2.011v4l4.707 1.961c0.145 0.406 0.301 0.801 0.488 1.188l-1.902 4.742 2.828 2.828 4.723-1.945c0.379 0.18 0.766 0.324 1.164 0.461l2.023 4.734h4l1.98-4.758c0.379-0.141 0.754-0.289 1.113-0.461l4.797 1.922 2.828-2.828-1.969-4.773c0.168-0.359 0.305-0.723 0.438-1.094l4.782-2.039zM15.969 22c-3.312 0-6-2.688-6-6s2.688-6 6-6 6 2.688 6 6-2.688 6-6 6z"></path>
</symbol>
<symbol id="icon-calendar-alt-stroke" viewBox="0 0 32 32">
<path d="M32 32h-32v-28h4v24h24v-24h4zM6 12h4v4h-4zM14 12h4v4h-4zM22 12h4v4h-4zM6 20h4v4h-4zM14 20h4v4h-4zM22 24v-4h4zM8 6v-4c0-1.105 0.895-2 2-2s2 0.895 2 2v4c0 1.105-0.895 2-2 2s-2-0.895-2-2zM20 6v-4c0-1.105 0.895-2 2-2s2 0.895 2 2v4c0 1.105-0.895 2-2 2s-2-0.895-2-2z"></path>
</symbol>
<symbol id="icon-calendar-alt-fill" viewBox="0 0 32 32">
<path d="M26 4v2.047c0 2.211-1.789 4-4 4s-4-1.789-4-4v-2.047h-4v2.047c0 2.211-1.789 4-4 4s-4-1.789-4-4v-2.047h-6v28h32v-28h-6zM10 28h-4v-4h4v4zM10 20h-4v-4h4v4zM18 28h-4v-4h4v4zM18 20h-4v-4h4v4zM22 28v-4h4l-4 4zM26 20h-4v-4h4v4zM8 6v-4c0-1.105 0.895-2 2-2s2 0.895 2 2v4c0 1.105-0.895 2-2 2s-2-0.895-2-2zM20 6v-4c0-1.105 0.895-2 2-2s2 0.895 2 2v4c0 1.105-0.895 2-2 2s-2-0.895-2-2z"></path>
</symbol>
<symbol id="icon-mail" viewBox="0 0 32 32">
<path d="M15.996 15.457l16.004-7.539v-3.918h-32v3.906zM16.004 19.879l-16.004-7.559v15.68h32v-15.656z"></path>
</symbol>
<symbol id="icon-heart-stroke" viewBox="0 0 32 32">
<path d="M23.113 6c2.457 0 4.492 1.82 4.836 4.188l-11.945 13.718-11.953-13.718c0.344-2.368 2.379-4.188 4.836-4.188 2.016 0 3.855 2.164 3.855 2.164l3.258 3.461 3.258-3.461c0 0 1.84-2.164 3.855-2.164M23.113 2c-2.984 0-5.5 1.578-7.113 3.844-1.613-2.266-4.129-3.844-7.113-3.844-4.903 0-8.887 3.992-8.887 8.891v0.734l16.008 18.375 15.992-18.375v-0.734c0-4.899-3.984-8.891-8.887-8.891v0z"></path>
</symbol>
<symbol id="icon-heart-fill" viewBox="0 0 32 32">
<path d="M16 5.844c-1.613-2.266-4.129-3.844-7.113-3.844-4.903 0-8.887 3.992-8.887 8.891v0.734l16.008 18.375 15.992-18.375v-0.734c0-4.899-3.984-8.891-8.887-8.891-2.984 0-5.5 1.578-7.113 3.844z"></path>
</symbol>
<symbol id="icon-movie" viewBox="0 0 32 32">
<path d="M27.977 8h-3.949l3.972-3.984-3.926-4.016h-5.566l3.988 3.984-4.086 4.016h-4.723l4.059-3.984-4.012-4.016h-5.656l3.984 3.984-4.085 4.016h-4.008l4.062-3.984-4.015-4.016h-4.016v32h32v-32h-3.922l3.922 4-4.023 4zM28 28h-24v-4h24v4zM28 20h-24v-4h24v4z"></path>
</symbol>
<symbol id="icon-plus" viewBox="0 0 32 32">
<path d="M32 12h-12v-12h-8v12h-12v8h12v12h8v-12h12z"></path>
</symbol>
<symbol id="icon-plus-alt" viewBox="0 0 32 32">
<path d="M16 0c-8.836 0-16 7.164-16 16s7.164 16 16 16 16-7.164 16-16-7.164-16-16-16zM24 18h-6v6h-4v-6h-6v-4h6v-6h4v6h6v4z"></path>
</symbol>
<symbol id="icon-minus" viewBox="0 0 32 32">
<path d="M0 12h32v8h-32z"></path>
</symbol>
<symbol id="icon-minus-alt" viewBox="0 0 32 32">
<path d="M16 0c-8.836 0-16 7.164-16 16s7.164 16 16 16 16-7.164 16-16-7.164-16-16-16zM24 18h-16v-4h16v4z"></path>
</symbol>
<symbol id="icon-move" viewBox="0 0 32 32">
<path d="M18 20v6h4l-6 6-6-6h4v-6zM14 12v-6h-4l6-6 6 6h-4v6zM12 18h-6v4l-6-6 6-6v4h6zM20 14h6v-4l6 6-6 6v-4h-6z"></path>
</symbol>
<symbol id="icon-move-alt1" viewBox="0 0 32 32">
<path d="M16 22l2-2v6h4l-6 6-6-6h4v-6zM16 10.062l-2 1.938v-6h-4l6-6 6 6h-4v6zM10 16l2 2h-6v4l-6-6 6-6v4h6zM21.938 16l-1.938-2h6v-4l6 6-6 6v-4h-6z"></path>
</symbol>
<symbol id="icon-magnifying-glass" viewBox="0 0 32 32">
<path d="M20.133 0c-6.539 0-11.86 5.32-11.86 11.863 0 1.566 0.32 3.051 0.871 4.418l-9.144 9.145 6.57 6.574 9.148-9.152c1.367 0.555 2.852 0.875 4.414 0.875 6.543 0 11.867-5.32 11.867-11.858 0.001-6.545-5.323-11.865-11.866-11.865zM20.133 19.727c-4.332 0-7.863-3.531-7.863-7.862 0-4.336 3.531-7.867 7.863-7.867 4.34 0 7.871 3.531 7.871 7.867 0 4.33-3.531 7.862-7.871 7.862z"></path>
</symbol>
<symbol id="icon-spin-alt" viewBox="0 0 32 32">
<path d="M4.691 27.32c-3.027-3.023-4.691-7.039-4.691-11.32 0-8.82 7.176-16 16-16l2 2-2 2c-6.617 0-12 5.383-12 12 0 3.211 1.25 6.227 3.52 8.492l-2.457 0.32-0.372 2.508zM16 32l-2-1.992 2-2.008c6.617 0 12-5.383 12-12 0-3.203-1.25-6.219-3.523-8.488l2.461-0.324 0.367-2.504c3.027 3.023 4.695 7.043 4.695 11.316 0 8.82-7.18 16-16 16v0z"></path>
</symbol>
<symbol id="icon-loop" viewBox="0 0 32 32">
<path d="M20 16v4h4.738l-5.371 5.371c-3.389 3.396-9.309 3.396-12.701 0l-2.83 2.824c2.451 2.454 5.715 3.805 9.184 3.805 3.471 0 6.727-1.352 9.175-3.805l5.805-5.8v5.605h4v-12h-12zM12 12h-4.738l5.371-5.371c3.389-3.396 9.309-3.396 12.701 0l2.83-2.824c-2.451-2.453-5.715-3.805-9.185-3.805s-6.727 1.352-9.175 3.805l-5.804 5.8v-5.605h-4v12h12v-4z"></path>
</symbol>
<symbol id="icon-volume" viewBox="0 0 32 32">
<path d="M8 24c-4.418 0-8-3.582-8-8s3.582-8 8-8v16zM12 8l8-4v24l-8-4zM24.004 23.996v-4c0.332 0 0.668-0.043 1.004-0.125 1.754-0.445 2.992-2.039 2.992-3.871s-1.238-3.422-3.012-3.871c-0.316-0.078-0.652-0.121-0.984-0.121v-4c0.656 0 1.313 0.082 1.957 0.238 3.559 0.906 6.039 4.090 6.039 7.754 0 3.668-2.48 6.855-6.027 7.754-0.664 0.16-1.321 0.242-1.969 0.242v0z"></path>
</symbol>
<symbol id="icon-volume-mute" viewBox="0 0 32 32">
<path d="M8 24c-4.418 0-8-3.582-8-8s3.582-8 8-8v16zM12 8l8-4v24l-8-4zM32 18h-8v-4h8z"></path>
</symbol>
<symbol id="icon-play" viewBox="0 0 24 32">
<path d="M0 0l24 16-24 16z"></path>
</symbol>
<symbol id="icon-pause" viewBox="0 0 24 32">
<path d="M0 0h8v32h-8zM16 0h8v32h-8z"></path>
</symbol>
<symbol id="icon-stop" viewBox="0 0 32 32">
<path d="M0 0h32v32h-32z"></path>
</symbol>
<symbol id="icon-first" viewBox="0 0 32 32">
<path d="M32 32l-24-16 24-16zM0 4h8v24h-8z"></path>
</symbol>
<symbol id="icon-last" viewBox="0 0 32 32">
<path d="M0 0l24 16-24 16zM24 4h8v24h-8z"></path>
</symbol>
<symbol id="icon-play-alt" viewBox="0 0 32 32">
<path d="M16 0c-8.836 0-16 7.164-16 16s7.164 16 16 16 16-7.164 16-16-7.164-16-16-16zM10 24v-16l16.008 8-16.008 8z"></path>
</symbol>
<symbol id="icon-fullscreen-exit" viewBox="0 0 32 32">
<path d="M24.586 27.414l4.586 4.586 2.828-2.828-4.586-4.586 4.586-4.586h-12v12zM0 12h12v-12l-4.586 4.586-4.539-4.543-2.828 2.828 4.539 4.543zM0 29.172l2.828 2.828 4.586-4.586 4.586 4.586v-12h-12l4.586 4.586zM20 12h12l-4.586-4.586 4.547-4.543-2.828-2.828-4.547 4.543-4.586-4.586z"></path>
</symbol>
<symbol id="icon-fullscreen-exit-alt" viewBox="0 0 32 32">
<path d="M28 20h-8v8l2.586-2.586 6.586 6.586 2.828-2.828-6.586-6.586zM25.414 9.414l6.586-6.586-2.828-2.828-6.586 6.586-2.586-2.586v8h8zM2.828 0l-2.828 2.828 6.586 6.586-2.586 2.586h8v-8l-2.586 2.586zM6.586 22.586l-6.586 6.586 2.828 2.828 6.586-6.586 2.586 2.586v-8h-8z"></path>
</symbol>
<symbol id="icon-fullscreen" viewBox="0 0 32 32">
<path d="M27.414 24.586l-4.586-4.586-2.828 2.828 4.586 4.586-4.586 4.586h12v-12zM12 0h-12v12l4.586-4.586 4.543 4.539 2.828-2.828-4.543-4.539zM12 22.828l-2.828-2.828-4.586 4.586-4.586-4.586v12h12l-4.586-4.586zM32 0h-12l4.586 4.586-4.543 4.539 2.828 2.828 4.543-4.539 4.586 4.586z"></path>
</symbol>
<symbol id="icon-fullscreen-alt" viewBox="0 0 32 32">
<path d="M29.414 26.586l-6.586-6.586-2.828 2.828 6.586 6.586-2.586 2.586h8v-8zM2.586 5.414l6.586 6.586 2.828-2.828-6.586-6.586 2.586-2.586h-8v8zM26.586 2.586l-6.586 6.586 2.828 2.828 6.586-6.586 2.586 2.586v-8h-8zM12 22.828l-2.828-2.828-6.586 6.586-2.586-2.586v8h8l-2.586-2.586z"></path>
</symbol>
<symbol id="icon-info" viewBox="0 0 16 32">
<path d="M2 16c1.105 0 2 0.895 2 2v8c0 1.105-0.895 2-2 2h-2v4h16v-4h-1.992c-1.102 0-2.008-0.895-2.008-2l-0.004-14h-11.996v4h2zM4 4c0-2.209 1.791-4 4-4s4 1.791 4 4c0 2.209-1.791 4-4 4s-4-1.791-4-4z"></path>
</symbol>
<symbol id="icon-question-mark" viewBox="0 0 16 32">
<path d="M5.6 30c0-1.105 0.895-2 2-2s2 0.895 2 2c0 1.105-0.895 2-2 2s-2-0.895-2-2zM7.676 25.977c-1.336 0-2.59-0.52-3.535-1.465s-1.465-2.199-1.465-3.535 0.52-2.59 1.465-3.535l6.688-6.688c0.757-0.756 1.171-1.76 1.171-2.828s-0.414-2.072-1.172-2.828c-1.559-1.56-4.096-1.563-5.654 0-0.758 0.756-1.174 1.759-1.174 2.828h-4c0-2.137 0.834-4.147 2.348-5.659 3.020-3.023 8.285-3.021 11.309 0.002 1.511 1.509 2.343 3.518 2.343 5.657 0 2.137-0.832 4.145-2.344 5.656l-6.687 6.688c-0.389 0.391-0.389 1.023 0 1.414 0.391 0.391 1.023 0.391 1.414 0 0.254-0.254 0.293-0.555 0.293-0.707h4c0 1.336-0.52 2.59-1.465 3.535s-2.199 1.465-3.535 1.465v0z"></path>
</symbol>
<symbol id="icon-aperture-alt" viewBox="0 0 32 32">
<path d="M30.309 8.973l-9.973 9.973h11.367c0.18-0.962 0.297-1.938 0.297-2.946 0-2.533-0.641-4.898-1.691-7.027zM21.055 15.24l8.203-8.199c-1.953-2.879-4.844-5.021-8.203-6.146v14.345zM16.748 21.055l8.205 8.207c2.883-1.949 5.027-4.844 6.152-8.207h-14.357zM18.943 11.744v-11.447c-0.957-0.178-1.935-0.297-2.943-0.297-2.555 0-4.938 0.654-7.080 1.721l10.023 10.023zM13.057 20.352v11.352c0.957 0.179 1.935 0.296 2.943 0.296 2.531 0 4.891-0.641 7.020-1.688l-9.963-9.96zM10.943 16.773l-8.193 8.192c1.949 2.875 4.838 5.016 8.193 6.141v-14.333zM0.297 13.057c-0.178 0.957-0.297 1.935-0.297 2.943 0 2.539 0.645 4.906 1.695 7.035l9.979-9.979h-11.377zM6.996 2.781c-2.855 1.949-4.982 4.823-6.101 8.162h14.264l-8.163-8.162z"></path>
</symbol>
<symbol id="icon-eye" viewBox="0 0 32 32">
<path d="M16 4c-8.836 0-16 11.844-16 11.844s7.164 12.156 16 12.156 16-12.156 16-12.156-7.164-11.844-16-11.844zM16 24c-4.418 0-8-3.582-8-8s3.582-8 8-8 8 3.582 8 8-3.582 8-8 8zM12 16c0-2.209 1.791-4 4-4s4 1.791 4 4c0 2.209-1.791 4-4 4s-4-1.791-4-4z"></path>
</symbol>
<symbol id="icon-home" viewBox="0 0 32 32">
<path d="M16 0l-16 16h4v16h24v-16h4l-16-16zM24 28h-6v-6h-4v6h-6v-14.344l8-5.656 8 5.656v14.344z"></path>
</symbol>
<symbol id="icon-clock" viewBox="0 0 32 32">
<path d="M16 4c6.617 0 12 5.383 12 12s-5.383 12-12 12-12-5.383-12-12 5.383-12 12-12M16 0c-8.836 0-16 7.164-16 16s7.164 16 16 16 16-7.164 16-16-7.164-16-16-16v0zM21.422 18.578l-3.422-3.426v-7.152h-4.023v7.992c0 0.602 0.277 1.121 0.695 1.492l3.922 3.922 2.828-2.828z"></path>
</symbol>
<symbol id="icon-sun-stroke" viewBox="0 0 32 32">
<path d="M16.001 12c2.203 0 4 1.795 4 4s-1.797 4-4 4-4-1.795-4-4 1.797-4 4-4M16.001 8c-4.418 0-8 3.582-8 8s3.582 8 8 8c4.418 0 7.999-3.582 7.999-8s-3.581-8-7.999-8v0zM14 2c0-1.105 0.895-2 2-2s2 0.895 2 2c0 1.105-0.895 2-2 2s-2-0.895-2-2zM4 6c0-1.105 0.895-2 2-2s2 0.895 2 2c0 1.105-0.895 2-2 2s-2-0.895-2-2zM2 14c1.105 0 2 0.895 2 2 0 1.107-0.895 2-2 2s-2-0.893-2-2c0-1.105 0.895-2 2-2zM4 26c0-1.105 0.895-2 2-2s2 0.895 2 2c0 1.105-0.895 2-2 2s-2-0.895-2-2zM14 30c0-1.109 0.895-2 2-2 1.108 0 2 0.891 2 2 0 1.102-0.892 2-2 2-1.105 0-2-0.898-2-2zM24 26c0-1.105 0.895-2 2-2s2 0.895 2 2c0 1.105-0.895 2-2 2s-2-0.895-2-2zM30 18c-1.104 0-2-0.896-2-2 0-1.107 0.896-2 2-2s2 0.893 2 2c0 1.104-0.896 2-2 2zM24 6c0-1.105 0.895-2 2-2s2 0.895 2 2c0 1.105-0.895 2-2 2s-2-0.895-2-2z"></path>
</symbol>
<symbol id="icon-sun-fill" viewBox="0 0 32 32">
<path d="M16.001 8c-4.418 0-8 3.582-8 8s3.582 8 8 8c4.418 0 7.999-3.582 7.999-8s-3.581-8-7.999-8v0zM14 2c0-1.105 0.895-2 2-2s2 0.895 2 2c0 1.105-0.895 2-2 2s-2-0.895-2-2zM4 6c0-1.105 0.895-2 2-2s2 0.895 2 2c0 1.105-0.895 2-2 2s-2-0.895-2-2zM2 14c1.105 0 2 0.895 2 2 0 1.107-0.895 2-2 2s-2-0.893-2-2c0-1.105 0.895-2 2-2zM4 26c0-1.105 0.895-2 2-2s2 0.895 2 2c0 1.105-0.895 2-2 2s-2-0.895-2-2zM14 30c0-1.109 0.895-2 2-2 1.108 0 2 0.891 2 2 0 1.102-0.892 2-2 2-1.105 0-2-0.898-2-2zM24 26c0-1.105 0.895-2 2-2s2 0.895 2 2c0 1.105-0.895 2-2 2s-2-0.895-2-2zM30 18c-1.104 0-2-0.896-2-2 0-1.107 0.896-2 2-2s2 0.893 2 2c0 1.104-0.896 2-2 2zM24 6c0-1.105 0.895-2 2-2s2 0.895 2 2c0 1.105-0.895 2-2 2s-2-0.895-2-2z"></path>
</symbol>
<symbol id="icon-star" viewBox="0 0 32 32">
<path d="M22.137 19.625l9.863-7.625h-12l-4-12-4 12h-12l9.875 7.594-3.875 12.406 10.016-7.68 9.992 7.68z"></path>
</symbol>
<symbol id="icon-document-alt-stroke" viewBox="0 0 24 32">
<path d="M14 0h-14v32h24v-22.002l-10-9.998zM4 28v-24h8v8h8v16h-16z"></path>
</symbol>
<symbol id="icon-film" viewBox="0 0 32 32">
<path d="M0 4v24h32v-24h-32zM6 26h-4v-4h4v4zM6 18h-4v-4h4v4zM6 10h-4v-4h4v4zM24 26h-16v-20h16v20zM30 26h-4v-4h4v4zM30 18h-4v-4h4v4zM30 10h-4v-4h4v4zM12 10v12l8-6z"></path>
</symbol>
<symbol id="icon-fire" viewBox="0 0 32 32">
<path d="M10.031 32c-2.133-4.438-0.997-6.981 0.642-9.376 1.795-2.624 2.258-5.221 2.258-5.221s1.411 1.834 0.847 4.703c2.493-2.775 2.963-7.196 2.587-8.889 5.635 3.938 8.043 12.464 4.798 18.783 17.262-9.767 4.294-24.38 2.036-26.027 0.753 1.646 0.895 4.433-0.625 5.785-2.573-9.759-8.937-11.759-8.937-11.759 0.753 5.033-2.728 10.536-6.084 14.648-0.118-2.007-0.243-3.392-1.298-5.312-0.237 3.646-3.023 6.617-3.777 10.27-1.022 4.946 0.765 8.568 7.555 12.394z"></path>
</symbol>
<symbol id="icon-star-empty" viewBox="0 0 32 32">
<path d="M32 12.408l-11.056-1.607-4.944-10.018-4.944 10.018-11.056 1.607 8 7.798-1.889 11.011 9.889-5.199 9.889 5.199-1.889-11.011 8-7.798zM16 23.547l-6.983 3.671 1.334-7.776-5.65-5.507 7.808-1.134 3.492-7.075 3.492 7.075 7.807 1.134-5.65 5.507 1.334 7.776-6.983-3.671z"></path>
</symbol>
<symbol id="icon-star-half" viewBox="0 0 32 32">
<path d="M32 12.408l-11.056-1.607-4.944-10.018-4.944 10.018-11.056 1.607 8 7.798-1.889 11.011 9.889-5.199 9.889 5.199-1.889-11.011 8-7.798zM16 23.547l-0.029 0.015 0.029-17.837 3.492 7.075 7.807 1.134-5.65 5.507 1.334 7.776-6.983-3.671z"></path>
</symbol>
<symbol id="icon-star-full" viewBox="0 0 32 32">
<path d="M32 12.408l-11.056-1.607-4.944-10.018-4.944 10.018-11.056 1.607 8 7.798-1.889 11.011 9.889-5.199 9.889 5.199-1.889-11.011 8-7.798z"></path>
</symbol>
<symbol id="icon-heart" viewBox="0 0 32 32">
<path d="M23.6 2c-3.363 0-6.258 2.736-7.599 5.594-1.342-2.858-4.237-5.594-7.601-5.594-4.637 0-8.4 3.764-8.4 8.401 0 9.433 9.516 11.906 16.001 21.232 6.13-9.268 15.999-12.1 15.999-21.232 0-4.637-3.763-8.401-8.4-8.401z"></path>
</symbol>
<symbol id="icon-info1" viewBox="0 0 32 32">
<path d="M14 9.5c0-0.825 0.675-1.5 1.5-1.5h1c0.825 0 1.5 0.675 1.5 1.5v1c0 0.825-0.675 1.5-1.5 1.5h-1c-0.825 0-1.5-0.675-1.5-1.5v-1z"></path>
<path d="M20 24h-8v-2h2v-6h-2v-2h6v8h2z"></path>
<path d="M16 0c-8.837 0-16 7.163-16 16s7.163 16 16 16 16-7.163 16-16-7.163-16-16-16zM16 29c-7.18 0-13-5.82-13-13s5.82-13 13-13 13 5.82 13 13-5.82 13-13 13z"></path>
</symbol>
<symbol id="icon-instagram" viewBox="0 0 32 32">
<path d="M16 2.881c4.275 0 4.781 0.019 6.462 0.094 1.563 0.069 2.406 0.331 2.969 0.55 0.744 0.288 1.281 0.638 1.837 1.194 0.563 0.563 0.906 1.094 1.2 1.838 0.219 0.563 0.481 1.412 0.55 2.969 0.075 1.688 0.094 2.194 0.094 6.463s-0.019 4.781-0.094 6.463c-0.069 1.563-0.331 2.406-0.55 2.969-0.288 0.744-0.637 1.281-1.194 1.837-0.563 0.563-1.094 0.906-1.837 1.2-0.563 0.219-1.413 0.481-2.969 0.55-1.688 0.075-2.194 0.094-6.463 0.094s-4.781-0.019-6.463-0.094c-1.563-0.069-2.406-0.331-2.969-0.55-0.744-0.288-1.281-0.637-1.838-1.194-0.563-0.563-0.906-1.094-1.2-1.837-0.219-0.563-0.481-1.413-0.55-2.969-0.075-1.688-0.094-2.194-0.094-6.463s0.019-4.781 0.094-6.463c0.069-1.563 0.331-2.406 0.55-2.969 0.288-0.744 0.638-1.281 1.194-1.838 0.563-0.563 1.094-0.906 1.838-1.2 0.563-0.219 1.412-0.481 2.969-0.55 1.681-0.075 2.188-0.094 6.463-0.094zM16 0c-4.344 0-4.887 0.019-6.594 0.094-1.7 0.075-2.869 0.35-3.881 0.744-1.056 0.412-1.95 0.956-2.837 1.85-0.894 0.888-1.438 1.781-1.85 2.831-0.394 1.019-0.669 2.181-0.744 3.881-0.075 1.713-0.094 2.256-0.094 6.6s0.019 4.887 0.094 6.594c0.075 1.7 0.35 2.869 0.744 3.881 0.413 1.056 0.956 1.95 1.85 2.837 0.887 0.887 1.781 1.438 2.831 1.844 1.019 0.394 2.181 0.669 3.881 0.744 1.706 0.075 2.25 0.094 6.594 0.094s4.888-0.019 6.594-0.094c1.7-0.075 2.869-0.35 3.881-0.744 1.050-0.406 1.944-0.956 2.831-1.844s1.438-1.781 1.844-2.831c0.394-1.019 0.669-2.181 0.744-3.881 0.075-1.706 0.094-2.25 0.094-6.594s-0.019-4.887-0.094-6.594c-0.075-1.7-0.35-2.869-0.744-3.881-0.394-1.063-0.938-1.956-1.831-2.844-0.887-0.887-1.781-1.438-2.831-1.844-1.019-0.394-2.181-0.669-3.881-0.744-1.712-0.081-2.256-0.1-6.6-0.1v0z"></path>
<path d="M16 7.781c-4.537 0-8.219 3.681-8.219 8.219s3.681 8.219 8.219 8.219 8.219-3.681 8.219-8.219c0-4.537-3.681-8.219-8.219-8.219zM16 21.331c-2.944 0-5.331-2.387-5.331-5.331s2.387-5.331 5.331-5.331c2.944 0 5.331 2.387 5.331 5.331s-2.387 5.331-5.331 5.331z"></path>
<path d="M26.462 7.456c0 1.060-0.859 1.919-1.919 1.919s-1.919-0.859-1.919-1.919c0-1.060 0.859-1.919 1.919-1.919s1.919 0.859 1.919 1.919z"></path>
</symbol>
<symbol id="icon-twitter" viewBox="0 0 32 32">
<path d="M32 7.075c-1.175 0.525-2.444 0.875-3.769 1.031 1.356-0.813 2.394-2.1 2.887-3.631-1.269 0.75-2.675 1.3-4.169 1.594-1.2-1.275-2.906-2.069-4.794-2.069-3.625 0-6.563 2.938-6.563 6.563 0 0.512 0.056 1.012 0.169 1.494-5.456-0.275-10.294-2.888-13.531-6.862-0.563 0.969-0.887 2.1-0.887 3.3 0 2.275 1.156 4.287 2.919 5.463-1.075-0.031-2.087-0.331-2.975-0.819 0 0.025 0 0.056 0 0.081 0 3.181 2.263 5.838 5.269 6.437-0.55 0.15-1.131 0.231-1.731 0.231-0.425 0-0.831-0.044-1.237-0.119 0.838 2.606 3.263 4.506 6.131 4.563-2.25 1.762-5.075 2.813-8.156 2.813-0.531 0-1.050-0.031-1.569-0.094 2.913 1.869 6.362 2.95 10.069 2.95 12.075 0 18.681-10.006 18.681-18.681 0-0.287-0.006-0.569-0.019-0.85 1.281-0.919 2.394-2.075 3.275-3.394z"></path>
</symbol>
<symbol id="icon-linkedin" viewBox="0 0 32 32">
<path d="M29 0h-26c-1.65 0-3 1.35-3 3v26c0 1.65 1.35 3 3 3h26c1.65 0 3-1.35 3-3v-26c0-1.65-1.35-3-3-3zM12 26h-4v-14h4v14zM10 10c-1.106 0-2-0.894-2-2s0.894-2 2-2c1.106 0 2 0.894 2 2s-0.894 2-2 2zM26 26h-4v-8c0-1.106-0.894-2-2-2s-2 0.894-2 2v8h-4v-14h4v2.481c0.825-1.131 2.087-2.481 3.5-2.481 2.488 0 4.5 2.238 4.5 5v9z"></path>
</symbol>
<symbol id="icon-envelope" viewBox="0 0 32 32">
<path d="M29 4h-26c-1.657 0-3 1.343-3 3v18c0 1.656 1.343 3 3 3h26c1.657 0 3-1.344 3-3v-18c0-1.657-1.343-3-3-3zM2.741 25.99l-0.731-0.732 8.249-8.248 0.731 0.732-8.249 8.248zM29.259 25.99l-8.249-8.248 0.731-0.732 8.249 8.248-0.731 0.732zM17 19.325v0.675h-2v-0.675l-12.997-12.050 1.272-1.272 12.725 11.798 12.725-11.798 1.272 1.272-12.997 12.050z"></path>
</symbol>
<symbol id="icon-key" viewBox="0 0 32 32">
<path d="M14 20h-3v-0.061c-0.33 0.034-0.661 0.061-1 0.061-5.522 0-10-4.477-10-10s4.478-10 10-10 10 4.477 10 10v4h1v1h1v1h1v1h1v1h1v1h1v1h1v1h1v1h1v1h1v1h1v1h1v6c0 0.553-0.447 1-1 1h-4c-0.553 0-1-0.447-1-1v-4h-5c-0.552 0-1-0.447-1-1v-4h-5M8 4c-2.209 0-4 1.791-4 4s1.791 4 4 4 4-1.791 4-4-1.791-4-4-4z"></path>
</symbol>
<symbol id="icon-plus1" viewBox="0 0 32 32">
<path d="M31 12h-11v-11c0-0.552-0.447-1-1-1h-6c-0.553 0-1 0.448-1 1v11h-11c-0.553 0-1 0.448-1 1v6c0 0.553 0.447 1 1 1h11v11c0 0.553 0.447 1 1 1h6c0.553 0 1-0.447 1-1v-11h11c0.553 0 1-0.447 1-1v-6c0-0.552-0.447-1-1-1z"></path>
</symbol>
<symbol id="icon-tinder" viewBox="0 0 32 32">
<path fill="#ff6b6b" style="fill: var(--color1, #ff6b6b)" d="M12.423 12.601c0.060 0.097 0.164 0.16 0.283 0.16 0.080 0 0.155-0.028 0.211-0.076l0.020-0.016c0.52-0.433 0.988-0.88 1.428-1.356 4.279-4.644 1.78-10.345 1.76-10.399-0.12-0.28-0.040-0.612 0.2-0.792 0.26-0.18 0.58-0.16 0.82 0.044 14.5 13.485 10.66 23.757 10.38 24.449-1.16 4.188-5.78 7.219-11.259 7.373-0.184 0.011-0.323 0.011-0.484 0.011-6.469 0-11.969-3.985-11.969-9.076v-0.080c0-7.063 6.393-14.029 6.679-14.325 0.181-0.199 0.46-0.26 0.7-0.14 0.24 0.101 0.396 0.34 0.388 0.601-0.057 1.381 0.223 2.58 0.841 3.6v0.020z"></path>
</symbol>
<symbol id="icon-pencil" viewBox="0 0 24 24">
<path d="M12.91 0.604l-8.799 15.705 0.045 0.023 0.445 7.064 6.447-3.202 0.041 0.023 8.799-15.704-6.978-3.909zM6.055 20.9l-0.061-3.539 3.199 1.793-3.138 1.746zM10.322 17.496l-3.488-1.955 5.377-9.597 3.49 1.954-5.379 9.598zM12.699 5.071l0.979-1.745 3.488 1.955-0.977 1.744-3.49-1.954z"></path>
</symbol>
<symbol id="icon-help" viewBox="0 0 24 24">
<path d="M15.047 11.25q0.938-0.938 0.938-2.25 0-1.641-1.172-2.813t-2.813-1.172-2.813 1.172-1.172 2.813h1.969q0-0.797 0.609-1.406t1.406-0.609 1.406 0.609 0.609 1.406-0.609 1.406l-1.219 1.266q-1.172 1.266-1.172 2.813v0.516h1.969q0-1.547 1.172-2.813zM12.984 18.984v-1.969h-1.969v1.969h1.969zM12 2.016q4.125 0 7.055 2.93t2.93 7.055-2.93 7.055-7.055 2.93-7.055-2.93-2.93-7.055 2.93-7.055 7.055-2.93z"></path>
</symbol>
<symbol id="icon-trending_up" viewBox="0 0 24 24">
<path d="M15.984 6h6v6l-2.297-2.297-6.281 6.281-3.984-3.984-6 6-1.406-1.406 7.406-7.406 3.984 3.984 4.875-4.875z"></path>
</symbol>
<symbol id="icon-help_outline" viewBox="0 0 24 24">
<path d="M12 6q1.641 0 2.813 1.172t1.172 2.813q0 1.266-1.5 2.602t-1.5 2.414h-1.969q0-1.078 0.469-1.852t1.031-1.125 1.031-0.867 0.469-1.172q0-0.797-0.609-1.383t-1.406-0.586-1.406 0.586-0.609 1.383h-1.969q0-1.641 1.172-2.813t2.813-1.172zM12 20.016q3.281 0 5.648-2.367t2.367-5.648-2.367-5.648-5.648-2.367-5.648 2.367-2.367 5.648 2.367 5.648 5.648 2.367zM12 2.016q4.125 0 7.055 2.93t2.93 7.055-2.93 7.055-7.055 2.93-7.055-2.93-2.93-7.055 2.93-7.055 7.055-2.93zM11.016 18v-2.016h1.969v2.016h-1.969z"></path>
</symbol>
<symbol id="icon-logout" viewBox="0 0 24 24">
<path d="M3.984 5.016v13.969h8.016v2.016h-8.016q-0.797 0-1.383-0.609t-0.586-1.406v-13.969q0-0.797 0.586-1.406t1.383-0.609h8.016v2.016h-8.016zM17.016 6.984l4.969 5.016-4.969 5.016-1.406-1.453 2.578-2.578h-10.172v-1.969h10.172l-2.578-2.625z"></path>
</symbol>
<symbol id="icon-clock1" viewBox="0 0 24 24">
<path d="M23 12c0-3.037-1.232-5.789-3.222-7.778s-4.741-3.222-7.778-3.222-5.789 1.232-7.778 3.222-3.222 4.741-3.222 7.778 1.232 5.789 3.222 7.778 4.741 3.222 7.778 3.222 5.789-1.232 7.778-3.222 3.222-4.741 3.222-7.778zM21 12c0 2.486-1.006 4.734-2.636 6.364s-3.878 2.636-6.364 2.636-4.734-1.006-6.364-2.636-2.636-3.878-2.636-6.364 1.006-4.734 2.636-6.364 3.878-2.636 6.364-2.636 4.734 1.006 6.364 2.636 2.636 3.878 2.636 6.364zM11 6v6c0 0.389 0.222 0.727 0.553 0.894l4 2c0.494 0.247 1.095 0.047 1.342-0.447s0.047-1.095-0.447-1.342l-3.448-1.723v-5.382c0-0.552-0.448-1-1-1s-1 0.448-1 1z"></path>
</symbol>
<symbol id="icon-film1" viewBox="0 0 24 24">
<path d="M16 11h-8v-8h8zM8 13h8v8h-8zM6 6h-3v-1.82c0-0.326 0.131-0.62 0.346-0.834s0.508-0.346 0.834-0.346h1.82zM3 8h3v3h-3zM6 16h-3v-3h3zM3 18h3v3h-1.82c-0.326 0-0.62-0.131-0.834-0.346s-0.346-0.508-0.346-0.834zM21 16h-3v-3h3zM18 18h3v1.82c0 0.326-0.131 0.62-0.346 0.834s-0.508 0.346-0.834 0.346h-1.82zM21 6h-3v-3h1.82c0.326 0 0.62 0.131 0.834 0.346s0.346 0.508 0.346 0.834zM23 7v-2.82c0-0.878-0.357-1.674-0.931-2.249s-1.371-0.931-2.249-0.931h-15.64c-0.878 0-1.674 0.357-2.249 0.931s-0.931 1.371-0.931 2.249v15.64c0 0.878 0.357 1.674 0.931 2.249s1.371 0.931 2.249 0.931h15.64c0.878 0 1.674-0.357 2.249-0.931s0.931-1.371 0.931-2.249zM18 8h3v3h-3z"></path>
</symbol>
<symbol id="icon-home1" viewBox="0 0 24 24">
<path d="M2.386 8.211c-0.236 0.184-0.386 0.469-0.386 0.789v11c0 0.828 0.337 1.58 0.879 2.121s1.293 0.879 2.121 0.879h14c0.828 0 1.58-0.337 2.121-0.879s0.879-1.293 0.879-2.121v-11c-0.001-0.3-0.134-0.593-0.386-0.789l-9-7c-0.358-0.275-0.861-0.285-1.228 0zM16 21v-9c0-0.552-0.448-1-1-1h-6c-0.552 0-1 0.448-1 1v9h-3c-0.276 0-0.525-0.111-0.707-0.293s-0.293-0.431-0.293-0.707v-10.511l8-6.222 8 6.222v10.511c0 0.276-0.111 0.525-0.293 0.707s-0.431 0.293-0.707 0.293zM10 21v-8h4v8z"></path>
</symbol>
<symbol id="icon-x1" viewBox="0 0 24 24">
<path d="M5.293 6.707l5.293 5.293-5.293 5.293c-0.391 0.391-0.391 1.024 0 1.414s1.024 0.391 1.414 0l5.293-5.293 5.293 5.293c0.391 0.391 1.024 0.391 1.414 0s0.391-1.024 0-1.414l-5.293-5.293 5.293-5.293c0.391-0.391 0.391-1.024 0-1.414s-1.024-0.391-1.414 0l-5.293 5.293-5.293-5.293c-0.391-0.391-1.024-0.391-1.414 0s-0.391 1.024 0 1.414z"></path>
</symbol>
<symbol id="icon-information" viewBox="0 0 32 32">
<path d="M16.5 29v0c-6.904 0-12.5-5.596-12.5-12.5s5.596-12.5 12.5-12.5c6.904 0 12.5 5.596 12.5 12.5s-5.596 12.5-12.5 12.5zM17 22v-7h-3v1h2v6h-2v1h5v-1h-2zM16.5 13c0.828 0 1.5-0.672 1.5-1.5s-0.672-1.5-1.5-1.5c-0.828 0-1.5 0.672-1.5 1.5s0.672 1.5 1.5 1.5v0z"></path>
</symbol>
<symbol id="icon-file-pdf" viewBox="0 0 32 32">
<path d="M8.007 10h16.986c1.671 0 3.007 1.343 3.007 2.999v7.002c0 1.657-1.346 2.999-3.007 2.999h-16.986c-1.671 0-3.007-1.343-3.007-2.999v-7.002c0-1.657 1.346-2.999 3.007-2.999zM7.995 11c-1.102 0-1.995 0.9-1.995 1.992v7.016c0 1.1 0.902 1.992 1.995 1.992h17.011c1.102 0 1.995-0.9 1.995-1.992v-7.016c0-1.1-0.902-1.992-1.995-1.992h-17.011zM21 16v-2h4v-1h-5v7h1v-3h3v-1h-3zM8 15v-2h2.995c1.111 0 2.005 0.895 2.005 2 0 1.112-0.898 2-2.005 2h-1.995v3h-1v-5zM9 14v2h2.001c0.552 0 0.999-0.444 0.999-1 0-0.552-0.443-1-0.999-1h-2.001zM14 13h2.995c1.111 0 2.005 0.898 2.005 2.006v2.988c0 1.119-0.898 2.006-2.005 2.006h-2.995v-7zM15 14v5h2.001c0.552 0 0.999-0.444 0.999-1v-3c0-0.552-0.443-1-0.999-1h-2.001z"></path>
</symbol>
<symbol id="icon-file-pdf1" viewBox="0 0 32 32">
<path d="M8.007 10h16.986c1.671 0 3.007 1.343 3.007 2.999v7.002c0 1.657-1.346 2.999-3.007 2.999h-16.986c-1.671 0-3.007-1.343-3.007-2.999v-7.002c0-1.657 1.346-2.999 3.007-2.999zM21 16v-2h4v-1h-5v7h1v-3h3v-1h-3zM8 15v5h1v-3h1.995c1.107 0 2.005-0.888 2.005-2 0-1.105-0.894-2-2.005-2h-2.995v2zM9 14v2h2.001c0.552 0 0.999-0.444 0.999-1 0-0.552-0.443-1-0.999-1h-2.001zM14 13v7h2.995c1.107 0 2.005-0.887 2.005-2.006v-2.988c0-1.108-0.894-2.006-2.005-2.006h-2.995zM15 14v5h2.001c0.552 0 0.999-0.444 0.999-1v-3c0-0.552-0.443-1-0.999-1h-2.001z"></path>
</symbol>
<symbol id="icon-film2" viewBox="0 0 32 32">
<path d="M30.335 26.445c-0.128-0.221-0.538-0.289-1.231-0.202-1.275 0.165-2.201-0.251-2.778-1.251-0.437-0.756-0.55-1.516-0.339-2.28s0.836-1.854 1.874-3.272l0.649-0.904c1.928-2.663 2.323-4.979 1.186-6.95-1.157-2.006-4.5-1.837-6.903-0.806-1.944-4.009-6.040-6.78-10.793-6.78-6.628 0-12 5.373-12 12s5.372 12 12 12c6.627 0 12-5.373 12-12 0-1.469-0.277-2.871-0.76-4.171 0.811-0.291 1.781-0.502 2.696-0.536 1.202-0.044 2.29 0.208 2.722 0.956 0.963 1.669 0.498 3.641-1.395 5.913l-0.388 0.466c-2.214 2.657-2.743 4.984-1.591 6.982 0.466 0.806 1.207 1.381 2.225 1.727 1.018 0.345 1.879 0.312 2.585-0.096 0.35-0.202 0.431-0.468 0.241-0.796zM6.5 18.562c-1.381 0-2.5-1.119-2.5-2.5 0-1.38 1.119-2.5 2.5-2.5s2.5 1.119 2.5 2.5c0 1.381-1.119 2.5-2.5 2.5zM12 24.062c-1.381 0-2.5-1.119-2.5-2.5s1.119-2.5 2.5-2.5 2.5 1.119 2.5 2.5-1.119 2.5-2.5 2.5zM11.020 16.062c0-0.552 0.449-1 1.001-1s1 0.447 1 1c0 0.553-0.448 1-1 1s-1.001-0.447-1.001-1zM12 13.062c-1.381 0-2.5-1.119-2.5-2.5s1.119-2.5 2.5-2.5 2.5 1.119 2.5 2.5c0 1.381-1.119 2.5-2.5 2.5zM17.5 18.562c-1.381 0-2.5-1.119-2.5-2.5 0-1.38 1.119-2.5 2.5-2.5s2.5 1.119 2.5 2.5c0 1.381-1.119 2.5-2.5 2.5z"></path>
</symbol>
<symbol id="icon-bulb" viewBox="0 0 32 32">
<path d="M16 0c-6.076 0-11 4.924-11 11 0 4.031 3.688 8.303 5.031 12.055 2.003 5.595 1.781 8.945 5.969 8.945 4.25 0 3.965-3.334 5.969-8.922 1.347-3.76 5.031-8.078 5.031-12.078 0-6.076-4.926-11-11-11zM18.592 27.176l-4.958 0.619c-0.177-0.512-0.367-1.111-0.598-1.893-0.003-0.010-0.007-0.021-0.009-0.031l6.188-0.773c-0.088 0.295-0.182 0.605-0.264 0.883-0.131 0.449-0.248 0.839-0.359 1.195zM12.736 24.908c-0.182-0.602-0.387-1.236-0.615-1.908h7.766c-0.123 0.359-0.246 0.719-0.352 1.059l-6.799 0.849zM16 30c-1.013 0-1.479-0.117-1.997-1.25l4.238-0.531c-0.614 1.654-1.061 1.781-2.241 1.781zM20.672 21h-9.333c-0.498-1.080-1.096-2.16-1.686-3.217-1.305-2.335-2.653-4.75-2.653-6.783 0-4.963 4.037-9 9-9s9 4.037 9 9c0 2.018-1.35 4.446-2.656 6.795-0.584 1.053-1.178 2.131-1.672 3.205zM16 5c0.275 0 0.5 0.224 0.5 0.5s-0.224 0.5-0.5 0.5c-2.757 0-5 2.243-5 5 0 0.276-0.224 0.5-0.5 0.5s-0.5-0.224-0.5-0.5c0-3.309 2.691-6 6-6z"></path>
</symbol>
<symbol id="icon-add-outline" viewBox="0 0 20 20">
<path d="M11 9h4v2h-4v4h-2v-4h-4v-2h4v-4h2v4zM10 20c-5.523 0-10-4.477-10-10s4.477-10 10-10v0c5.523 0 10 4.477 10 10s-4.477 10-10 10v0zM10 18c4.418 0 8-3.582 8-8s-3.582-8-8-8v0c-4.418 0-8 3.582-8 8s3.582 8 8 8v0z"></path>
</symbol>
<symbol id="icon-add-solid" viewBox="0 0 20 20">
<path d="M11 9v-4h-2v4h-4v2h4v4h2v-4h4v-2h-4zM10 20c-5.523 0-10-4.477-10-10s4.477-10 10-10v0c5.523 0 10 4.477 10 10s-4.477 10-10 10v0z"></path>
</symbol>
<symbol id="icon-film3" viewBox="0 0 20 20">
<path d="M0 4c0-1.1 0.9-2 2-2h16c1.105 0 2 0.895 2 2v0 12c0 1.105-0.895 2-2 2v0h-16c-1.105 0-2-0.895-2-2v0-12zM6 4v12h8v-12h-8zM2 5v2h2v-2h-2zM2 9v2h2v-2h-2zM2 13v2h2v-2h-2zM16 5v2h2v-2h-2zM16 9v2h2v-2h-2zM16 13v2h2v-2h-2zM8 7l5 3-5 3v-6z"></path>
</symbol>
<symbol id="icon-search" viewBox="0 0 20 20">
<path d="M12.9 14.32c-1.34 1.049-3.050 1.682-4.908 1.682-4.418 0-8-3.582-8-8s3.582-8 8-8c4.418 0 8 3.582 8 8 0 1.858-0.633 3.567-1.695 4.925l0.013-0.018 5.35 5.33-1.42 1.42-5.33-5.34zM8 14c3.314 0 6-2.686 6-6s-2.686-6-6-6v0c-3.314 0-6 2.686-6 6s2.686 6 6 6v0z"></path>
</symbol>
<symbol id="icon-time" viewBox="0 0 20 20">
<path d="M10 20c-5.523 0-10-4.477-10-10s4.477-10 10-10v0c5.523 0 10 4.477 10 10s-4.477 10-10 10v0zM10 18c4.418 0 8-3.582 8-8s-3.582-8-8-8v0c-4.418 0-8 3.582-8 8s3.582 8 8 8v0zM9 10.41v-6.41h2v5.59l3.95 3.95-1.41 1.41-4.54-4.54z"></path>
</symbol>
<symbol id="icon-chevron-thin-left" viewBox="0 0 20 20">
<path d="M13.891 17.418c0.268 0.272 0.268 0.709 0 0.979s-0.701 0.271-0.969 0l-7.83-7.908c-0.268-0.27-0.268-0.707 0-0.979l7.83-7.908c0.268-0.27 0.701-0.27 0.969 0s0.268 0.709 0 0.979l-7.141 7.419 7.141 7.418z"></path>
</symbol>
<symbol id="icon-chevron-thin-right" viewBox="0 0 20 20">
<path d="M13.25 10l-7.141-7.42c-0.268-0.27-0.268-0.707 0-0.979 0.268-0.27 0.701-0.27 0.969 0l7.83 7.908c0.268 0.271 0.268 0.709 0 0.979l-7.83 7.908c-0.268 0.271-0.701 0.27-0.969 0s-0.268-0.707 0-0.979l7.141-7.417z"></path>
</symbol>
<symbol id="icon-question-circle" viewBox="0 0 24 28">
<path d="M14 21.5v-3c0-0.281-0.219-0.5-0.5-0.5h-3c-0.281 0-0.5 0.219-0.5 0.5v3c0 0.281 0.219 0.5 0.5 0.5h3c0.281 0 0.5-0.219 0.5-0.5zM18 11c0-2.859-3-5-5.688-5-2.547 0-4.453 1.094-5.797 3.328-0.141 0.219-0.078 0.5 0.125 0.656l2.063 1.563c0.078 0.063 0.187 0.094 0.297 0.094 0.141 0 0.297-0.063 0.391-0.187 0.734-0.938 1.047-1.219 1.344-1.437 0.266-0.187 0.781-0.375 1.344-0.375 1 0 1.922 0.641 1.922 1.328 0 0.812-0.422 1.219-1.375 1.656-1.109 0.5-2.625 1.797-2.625 3.313v0.562c0 0.281 0.219 0.5 0.5 0.5h3c0.281 0 0.5-0.219 0.5-0.5v0c0-0.359 0.453-1.125 1.188-1.547 1.188-0.672 2.812-1.578 2.812-3.953zM24 14c0 6.625-5.375 12-12 12s-12-5.375-12-12 5.375-12 12-12 12 5.375 12 12z"></path>
</symbol>
<symbol id="icon-info-circle" viewBox="0 0 24 28">
<path d="M16 21.5v-2.5c0-0.281-0.219-0.5-0.5-0.5h-1.5v-8c0-0.281-0.219-0.5-0.5-0.5h-5c-0.281 0-0.5 0.219-0.5 0.5v2.5c0 0.281 0.219 0.5 0.5 0.5h1.5v5h-1.5c-0.281 0-0.5 0.219-0.5 0.5v2.5c0 0.281 0.219 0.5 0.5 0.5h7c0.281 0 0.5-0.219 0.5-0.5zM14 7.5v-2.5c0-0.281-0.219-0.5-0.5-0.5h-3c-0.281 0-0.5 0.219-0.5 0.5v2.5c0 0.281 0.219 0.5 0.5 0.5h3c0.281 0 0.5-0.219 0.5-0.5zM24 14c0 6.625-5.375 12-12 12s-12-5.375-12-12 5.375-12 12-12 12 5.375 12 12z"></path>
</symbol>
<symbol id="icon-wpforms" viewBox="0 0 24 28">
<path d="M8.047 14.234v2h-3.938v-2h3.938zM8.047 10.25v1.984h-3.938v-1.984h3.938zM19.891 18.234v2h-5.328v-2h5.328zM19.891 14.234v2h-10.5v-2h10.5zM19.891 10.25v1.984h-10.5v-1.984h10.5zM22 23.688v-19.375c0-0.172-0.141-0.313-0.313-0.313h-0.5l-5.906 4-3.281-2.672-3.281 2.672-5.906-4h-0.5c-0.172 0-0.313 0.141-0.313 0.313v19.375c0 0.172 0.141 0.313 0.313 0.313h19.375c0.172 0 0.313-0.141 0.313-0.313zM8.641 6.344l2.891-2.344h-6.344zM15.359 6.344l3.453-2.344h-6.344zM24 4.312v19.375c0 1.281-1.031 2.312-2.312 2.312h-19.375c-1.281 0-2.312-1.031-2.312-2.312v-19.375c0-1.281 1.031-2.312 2.312-2.312h19.375c1.281 0 2.312 1.031 2.312 2.312z"></path>
</symbol>
</defs>
</svg>
